<svg xmlns="http://www.w3.org/2000/svg" viewBox="0 0 750 500"><g id="freepik--background-simple--inject-3"><path d="M637.25,204c-2.35-45.94-20.13-88.59-53.59-120.15-22.73-21.44-62.48-34.16-93.72-35.12-32.3-1-62.77,14.25-90.37,31.06s-54.66,35.88-85.92,44.05c-26.31,6.87-54.18,5.59-80.61,12-57.39,14-102.89,67.33-107.58,126.22-.07.92-.13,1.84-.19,2.76-4.51,78.09,63,141.26,140.8,133.36l145.67-4.82c61-3.8,123.11-20.35,168.89-60.8C615.1,302.15,639.6,250,637.25,204Z" style="fill:#f5f5f5"></path></g><g id="freepik--Floor--inject-3"><path d="M709.59,462.05c0,.14-148.93.26-332.59.26s-332.62-.12-332.62-.26,148.89-.26,332.62-.26S709.59,461.91,709.59,462.05Z" style="fill:#263238"></path></g><g id="freepik--Photocopier--inject-3"><path d="M276.9,220.56A1663.68,1663.68,0,0,0,461.84,119.91l20.88,78.22-203,23.27" style="fill:#FFCE00"></path><g style="opacity:0.9"><path d="M276.9,220.56A1663.68,1663.68,0,0,0,461.84,119.91l20.88,78.22-203,23.27" style="fill:#fff"></path></g><polygon points="128.65 237.4 188.91 271.2 188.91 263.5 131.26 233.31 128.65 237.4" style="fill:#f5f5f5"></polygon><polygon points="188.91 271.2 141.51 244.58 137.55 250.23 166.83 267.61 167.02 275.17 188.91 287.07 188.91 271.2" style="fill:#263238"></polygon><polygon points="188.91 344.53 141.51 317.91 137.55 323.56 166.83 340.94 167.02 348.5 188.91 360.4 188.91 344.53" style="fill:#263238"></polygon><path d="M198.17,244.58H314.42a0,0,0,0,1,0,0V323a0,0,0,0,1,0,0H188.91a0,0,0,0,1,0,0V253.84A9.26,9.26,0,0,1,198.17,244.58Z" style="fill:#FFCE00"></path><rect x="188.91" y="325.92" width="125.51" height="91.82" style="fill:#FFCE00"></rect><polygon points="188.22 400.38 134.94 400.38 134.94 405.25 188.94 411.03 188.22 400.38" style="fill:#263238"></polygon><path d="M180.54,419.52h0a4.6,4.6,0,0,1-4.6-4.6v-4.61a4.6,4.6,0,0,1,4.6-4.6h0a4.61,4.61,0,0,1,4.61,4.6v4.61A4.61,4.61,0,0,1,180.54,419.52Z" style="fill:#263238"></path><polygon points="140.72 403.27 140.72 387.38 147.94 387.38 147.94 404.35 140.72 403.27" style="fill:#263238"></polygon><rect x="188.95" y="420.97" width="125.47" height="29.24" style="fill:#FFCE00"></rect><path d="M198.17,244.58H314.42a0,0,0,0,1,0,0V323a0,0,0,0,1,0,0H188.91a0,0,0,0,1,0,0V253.84A9.26,9.26,0,0,1,198.17,244.58Z" style="opacity:0.6000000000000001"></path><rect x="188.91" y="325.92" width="125.51" height="91.82" style="opacity:0.6000000000000001"></rect><rect x="188.95" y="420.97" width="125.47" height="29.24" style="opacity:0.6000000000000001"></rect><rect x="188.95" y="450.21" width="125.47" height="11.84" style="fill:#FFCE00"></rect><rect x="286.17" y="233.26" width="134.64" height="217.62" style="fill:#FFCE00"></rect><rect x="286.17" y="233.26" width="134.64" height="217.62" style="opacity:0.30000000000000004"></rect><rect x="375.77" y="230.23" width="52.13" height="61.06" style="fill:#FFCE00"></rect><polygon points="360.49 101.72 365.55 109.03 363.66 112.11 367.23 109.64 371.08 113.75 311.4 165.6 297.94 159.96 360.49 101.72" style="fill:#f5f5f5"></polygon><polygon points="381.23 110.25 377.44 106.59 370.1 113.08 335.8 143.44 340.41 147.11 381.23 110.25" style="fill:#263238"></polygon><path d="M315.59,168.75l33.56-29.26h0a14.86,14.86,0,0,0-19,.64L303.91,163.5Z" style="fill:#455a64"></path><path d="M260.52,193.87l17,24.6L404.12,130.9h0a14.16,14.16,0,0,0-19.72-3.59l-57,39.41L299,156.87l-36.4,25.6A8.22,8.22,0,0,0,260.52,193.87Z" style="fill:#FFCE00"></path><path d="M276.08,219.87v11.66a4.91,4.91,0,0,0,4.91,4.91H427.9V219.87Z" style="fill:#FFCE00"></path><path d="M344.49,256V219.87H427.9v29.66a6.46,6.46,0,0,1-6.46,6.45H344.49" style="fill:#263238"></path><rect x="350.31" y="224.74" width="44.26" height="23.03" style="fill:#455a64"></rect><rect x="401.83" y="224.74" width="2.48" height="2.48" style="fill:#455a64"></rect><rect x="406.64" y="224.74" width="2.48" height="2.48" style="fill:#455a64"></rect><rect x="411.44" y="224.74" width="2.48" height="2.48" style="fill:#455a64"></rect><rect x="417.2" y="224.74" width="6.71" height="2.48" style="fill:#f5f5f5"></rect><rect x="417.2" y="228.99" width="6.71" height="2.48" style="fill:#f5f5f5"></rect><rect x="417.2" y="233.26" width="6.71" height="2.48" style="fill:#f5f5f5"></rect><rect x="417.2" y="237.83" width="6.71" height="2.48" style="fill:#f5f5f5"></rect><rect x="411.44" y="229.07" width="2.48" height="2.48" style="fill:#455a64"></rect><rect x="401.83" y="229.2" width="2.48" height="2.48" style="fill:#455a64"></rect><rect x="401.83" y="233.34" width="2.48" height="2.48" style="fill:#455a64"></rect><rect x="406.79" y="229.2" width="2.48" height="2.48" style="fill:#455a64"></rect><rect x="406.79" y="233.34" width="2.48" height="2.48" style="fill:#455a64"></rect><rect x="411.65" y="233.34" width="2.48" height="2.48" style="fill:#455a64"></rect><path d="M416.68,245.59a4.32,4.32,0,1,1-4.32-4.32A4.32,4.32,0,0,1,416.68,245.59Z" style="fill:#FFCE00"></path><path d="M406.41,245.59a2.56,2.56,0,1,1-2.55-2.56A2.55,2.55,0,0,1,406.41,245.59Z" style="fill:#455a64"></path><path d="M423.37,245.63a2.56,2.56,0,1,1-2.56-2.56A2.56,2.56,0,0,1,423.37,245.63Z" style="fill:#455a64"></path><path d="M284.82,291.29H427.9a0,0,0,0,1,0,0v68.43a0,0,0,0,1,0,0H276.25a0,0,0,0,1,0,0V299.87A8.57,8.57,0,0,1,284.82,291.29Z" style="fill:#FFCE00"></path><path d="M283,361.16H423.17a4.73,4.73,0,0,1,4.73,4.73V386a0,0,0,0,1,0,0H276.25a0,0,0,0,1,0,0V367.92A6.76,6.76,0,0,1,283,361.16Z" style="fill:#FFCE00"></path><path d="M327.49,361.16H376a0,0,0,0,1,0,0v6.33a5.17,5.17,0,0,1-5.17,5.17h-38.2a5.17,5.17,0,0,1-5.17-5.17v-6.33A0,0,0,0,1,327.49,361.16Z" style="opacity:0.30000000000000004"></path><path d="M283.37,387h137.4a7.13,7.13,0,0,1,7.13,7.13v43.06a0,0,0,0,1,0,0H276.25a0,0,0,0,1,0,0V394.1A7.13,7.13,0,0,1,283.37,387Z" style="fill:#FFCE00"></path><path d="M327.49,387H376a0,0,0,0,1,0,0v6.33a5.17,5.17,0,0,1-5.17,5.17h-38.2a5.17,5.17,0,0,1-5.17-5.17V387A0,0,0,0,1,327.49,387Z" style="opacity:0.30000000000000004"></path><rect x="276.25" y="439.72" width="151.65" height="22.33" style="fill:#FFCE00"></rect><rect x="316.25" y="274.68" width="59.52" height="3.73" style="fill:#263238"></rect><rect x="295.66" y="260.76" width="80.1" height="13.92" style="fill:#f5f5f5"></rect><path d="M375.53,227.75c0,.15-4.95.26-11,.26s-11.05-.11-11.05-.26,4.95-.26,11.05-.26S375.53,227.61,375.53,227.75Z" style="fill:#fafafa"></path><path d="M362.81,231.31a42.34,42.34,0,0,1-9.37,0,42.34,42.34,0,0,1,9.37,0Z" style="fill:#fafafa"></path><path d="M362.81,235.08a42.34,42.34,0,0,1-9.37,0,42.34,42.34,0,0,1,9.37,0Z" style="fill:#fafafa"></path><path d="M363.08,241.27a42.25,42.25,0,0,1-9.36,0,42.25,42.25,0,0,1,9.36,0Z" style="fill:#fafafa"></path><path d="M388.71,241.27a42.25,42.25,0,0,1-9.36,0,42.25,42.25,0,0,1,9.36,0Z" style="fill:#fafafa"></path><rect x="276.25" y="439.72" width="151.65" height="22.33" style="fill:#fff;opacity:0.5"></rect><path d="M398.53,126.16s-.09.09-.3.24l-.94.66-3.63,2.5-13.38,9.17c-11.28,7.75-26.8,18.57-43.75,30.78S304.4,193,293.47,201.26l-12.93,9.79L277,213.7l-.93.68a2.9,2.9,0,0,1-.32.22s.09-.1.29-.26l.89-.72,3.46-2.73c3-2.37,7.4-5.76,12.84-9.92,10.87-8.32,26-19.66,43-31.88s32.51-23,43.85-30.67c5.67-3.84,10.27-6.92,13.47-9l3.69-2.42,1-.62Z" style="fill:#263238"></path><path d="M427.81,353.07c0,.15-33.89.26-75.68.26s-75.69-.11-75.69-.26,33.88-.26,75.69-.26S427.81,352.93,427.81,353.07Z" style="fill:#263238"></path><path d="M427.81,347.51c0,.14-33.89.26-75.68.26s-75.69-.12-75.69-.26,33.88-.26,75.69-.26S427.81,347.37,427.81,347.51Z" style="fill:#263238"></path><path d="M427.81,342c0,.14-33.89.26-75.68.26s-75.69-.12-75.69-.26,33.88-.26,75.69-.26S427.81,341.8,427.81,342Z" style="fill:#263238"></path><path d="M427.81,336.38c0,.15-33.89.27-75.68.27s-75.69-.12-75.69-.27,33.88-.26,75.69-.26S427.81,336.24,427.81,336.38Z" style="fill:#263238"></path><path d="M428.05,386c0,.14-34.05.26-76,.26s-76-.12-76-.26,34-.26,76-.26S428.05,385.82,428.05,386Z" style="fill:#263238"></path><path d="M428.05,437.16c0,.14-34.05.26-76,.26s-76-.12-76-.26,34-.26,76-.26S428.05,437,428.05,437.16Z" style="fill:#263238"></path><path d="M376,361.16a2.94,2.94,0,0,1,.06.67c0,.5.08,1.14.13,1.93a19.21,19.21,0,0,1,0,3.08,7,7,0,0,1-1.49,3.82,5,5,0,0,1-2,1.42,12.89,12.89,0,0,1-2.51.68,34.46,34.46,0,0,1-5.65.52c-4,.05-8.34-.06-12.93-.11l-12.93-.2c-2-.05-3.87,0-5.66-.14a7.91,7.91,0,0,1-2.54-.57,4.9,4.9,0,0,1-1.93-1.49,7,7,0,0,1-1.39-3.85c-.06-1.2,0-2.23,0-3.07s.09-1.49.13-1.94a3,3,0,0,1,.09-.67,4.46,4.46,0,0,1,0,.68c0,.5,0,1.14,0,1.93s0,1.87.07,3a6.72,6.72,0,0,0,1.39,3.64,4.5,4.5,0,0,0,1.79,1.35,7.56,7.56,0,0,0,2.43.51c1.74.09,3.64.06,5.63.09l12.93.16c4.58.05,9,.17,12.92.16a35.89,35.89,0,0,0,5.57-.48,11.93,11.93,0,0,0,2.44-.62,4.61,4.61,0,0,0,1.83-1.29,6.79,6.79,0,0,0,1.48-3.61,21.36,21.36,0,0,0,.06-3c0-.84,0-1.49,0-1.94A4.36,4.36,0,0,1,376,361.16Z" style="fill:#263238"></path><path d="M376,386.52a2.94,2.94,0,0,1,.06.67c0,.49.08,1.13.13,1.93a19.21,19.21,0,0,1,0,3.08,7,7,0,0,1-1.49,3.81,4.92,4.92,0,0,1-2,1.43,12.89,12.89,0,0,1-2.51.68,34.46,34.46,0,0,1-5.65.52c-4,.05-8.34-.07-12.93-.11l-12.93-.2c-2-.05-3.87,0-5.66-.14a7.91,7.91,0,0,1-2.54-.57,4.9,4.9,0,0,1-1.93-1.49,7,7,0,0,1-1.39-3.85c-.06-1.2,0-2.23,0-3.07s.09-1.5.13-1.94a3,3,0,0,1,.09-.67,4.46,4.46,0,0,1,0,.68c0,.49,0,1.14,0,1.93s0,1.87.07,3.05a6.72,6.72,0,0,0,1.39,3.64,4.59,4.59,0,0,0,1.79,1.35,7.84,7.84,0,0,0,2.43.51c1.74.09,3.64.06,5.63.09l12.93.16c4.58,0,9,.17,12.92.15a34.74,34.74,0,0,0,5.57-.47,12.62,12.62,0,0,0,2.44-.62,4.53,4.53,0,0,0,1.83-1.3,6.73,6.73,0,0,0,1.48-3.6,21.36,21.36,0,0,0,.06-3c0-.84,0-1.49,0-1.94A4.36,4.36,0,0,1,376,386.52Z" style="fill:#263238"></path></g><g id="freepik--Character--inject-3"><path d="M404.38,208.46l-8.73,2.74-15.06,4.33a4.19,4.19,0,0,0-2.54,1.45l-6.67,8,9.72,1.73,3.36-3.9a8.48,8.48,0,0,0,9.77-1l15-2.4Z" style="fill:#ffbe9d"></path><path d="M395.34,211.91a2.65,2.65,0,0,1-.77.47,17.92,17.92,0,0,1-2.25.91c-1.95.68-4.74,1.18-7.71,2a15.68,15.68,0,0,0-6.8,3.76,14.38,14.38,0,0,0-1.88,2.66,2.56,2.56,0,0,1,.27-.86,7.68,7.68,0,0,1,1.34-2,14.86,14.86,0,0,1,6.92-4c3-.86,5.81-1.3,7.75-1.88S395.3,211.84,395.34,211.91Z" style="fill:#fff"></path><path d="M453.81,110.21c-2.69,3-3.61,7.19-4,11.2-.89,8.93.29,18-1.23,26.87-.59,3.41-1.57,6.77-1.72,10.23s.68,7.16,3.18,9.55a12.56,12.56,0,0,0,6.46,3,13.72,13.72,0,0,0,8-.57,13,13,0,0,0,6.53-7.51c2.83-7.48.7-15.79-.62-23.67-2-11.91-2.1-24.05-2.2-36.12" style="fill:#263238"></path><path d="M469.69,102c4.59-1.51,9.84.46,13.13,4s4.84,8.4,5.36,13.2.1,9.65-.05,14.48,0,9.76,1.53,14.34c3.26,9.56,12.38,16.54,14.46,26.43.88,4.18,0,9.27-3.74,11.36,1.91,2.54,1.19,6.46-1.15,8.62a10,10,0,0,1-8.94,2,20.37,20.37,0,0,1-8.29-4.52c-6.94-5.73-12.15-14.11-12.22-23.11-.06-6.61,2.59-12.9,3.77-19.4,2.71-14.9-2.38-30.22-1-45.3" style="fill:#263238"></path><path d="M481.56,118.61a15.54,15.54,0,0,0-16.33-15.2c-8.3.42-14.7,7.58-14.74,15.9,0,7.29.09,14.63.5,17.24,1.25,7.87,6.32,10.27,8.32,10.92a10.31,10.31,0,0,0,2.15.21h0a.06.06,0,0,1,.06.06l-.44,9.31c.08,6,4.16,10.85,10.21,10.85s10-5.23,10.09-11.3Z" style="fill:#ffbe9d"></path><path d="M453.44,123.39a1.27,1.27,0,0,0,1.22,1.27,1.21,1.21,0,0,0,1.31-1.14,1.27,1.27,0,0,0-1.22-1.28A1.22,1.22,0,0,0,453.44,123.39Z" style="fill:#263238"></path><path d="M452.62,121.18c.16.17,1.12-.54,2.48-.54s2.37.68,2.51.52-.08-.37-.52-.69a3.47,3.47,0,0,0-2-.62,3.29,3.29,0,0,0-2,.64C452.69,120.81,452.55,121.11,452.62,121.18Z" style="fill:#263238"></path><path d="M466.77,123.39a1.27,1.27,0,0,0,1.23,1.27,1.2,1.2,0,0,0,1.3-1.14,1.27,1.27,0,0,0-1.22-1.28A1.22,1.22,0,0,0,466.77,123.39Z" style="fill:#263238"></path><path d="M466,121.44c.15.16,1.12-.55,2.48-.55s2.36.69,2.51.52-.09-.37-.52-.69a3.55,3.55,0,0,0-2-.62,3.39,3.39,0,0,0-2,.64C466.09,121.06,466,121.36,466,121.44Z" style="fill:#263238"></path><path d="M461.08,131.55a8.64,8.64,0,0,0-2.22-.4c-.34,0-.67-.11-.73-.34a1.79,1.79,0,0,1,.23-1l1-2.65a45.79,45.79,0,0,0,2.31-6.93,45.7,45.7,0,0,0-2.86,6.73q-.52,1.39-1,2.67a2,2,0,0,0-.18,1.36.87.87,0,0,0,.57.51,2.29,2.29,0,0,0,.59.08A8.69,8.69,0,0,0,461.08,131.55Z" style="fill:#263238"></path><path d="M461.52,147.68s5.26.43,11.85-3.53c0,0-2.08,7-12,6Z" style="fill:#eb996e"></path><path d="M461.65,134.83a2.5,2.5,0,0,1,2.21-.91,2.28,2.28,0,0,1,1.55.83,1.42,1.42,0,0,1,.1,1.63,1.64,1.64,0,0,1-1.78.45,5.15,5.15,0,0,1-1.75-1,1.85,1.85,0,0,1-.39-.4.45.45,0,0,1,0-.51" style="fill:#eb996e"></path><path d="M465.09,132.49c-.22,0-.22,1.47-1.49,2.52s-2.84.89-2.85,1.09.35.29,1,.31a3.73,3.73,0,0,0,2.39-.83,3.21,3.21,0,0,0,1.15-2.11C465.36,132.85,465.19,132.48,465.09,132.49Z" style="fill:#263238"></path><path d="M465.41,119.05c.14.37,1.5.19,3.1.39s2.89.62,3.11.29c.09-.16-.13-.51-.66-.86a5.42,5.42,0,0,0-4.72-.53C465.65,118.58,465.36,118.87,465.41,119.05Z" style="fill:#263238"></path><path d="M453.12,118.39c.24.31,1.18,0,2.31,0s2.09.21,2.31-.12c.1-.16-.05-.47-.47-.76a3.23,3.23,0,0,0-1.88-.51,3.19,3.19,0,0,0-1.84.63C453.15,117.92,453,118.24,453.12,118.39Z" style="fill:#263238"></path><path d="M447.89,115.58c1.58,2.56,6.85,1.15,10.06-.5a7.52,7.52,0,0,0,10.32-1.84c1.75,2.35,5.44,1.69,6.85-.87s.76-6.15-1-8.47A11.78,11.78,0,0,0,467,99.8a16.67,16.67,0,0,0-17.13,6.51c-1.81,2.58-2.95,6.09-2,9.27" style="fill:#263238"></path><path d="M472.79,109a19.55,19.55,0,0,1,1.43,8.84c-.13,3-.66,6-1,9a67.45,67.45,0,0,0,1.25,24c.51,2.07,1.2,4.24,2.85,5.59s3.9,1.63,6,1.85c1.6.16,3.49.22,4.5-1s.62-2.84.17-4.24c-.86-2.67-2.07-5.22-2.74-8-1.16-4.73-.58-9.71.05-14.54s1.34-9.77.41-14.56-3.8-9.51-8.35-11.25a6.65,6.65,0,0,0-3.68-.44,3.8,3.8,0,0,0-2.82,2.23,2.69,2.69,0,0,0,1.09,3.25" style="fill:#263238"></path><path d="M485.46,158.58l-.15,0a2.52,2.52,0,0,1-.46,0,4.21,4.21,0,0,1-1.73-.3,7.07,7.07,0,0,1-4.08-4.79c-.79-2.67-.5-5.94-.5-9.49s.12-7.49.18-11.6.2-8,.18-11.6a28.27,28.27,0,0,0-1.41-9.26,15.53,15.53,0,0,0-3.22-5.4c-1-1.09-1.74-1.54-1.71-1.58a2.2,2.2,0,0,1,.52.31,11.62,11.62,0,0,1,1.34,1.13,15,15,0,0,1,3.41,5.42,27.73,27.73,0,0,1,1.55,9.37c0,3.58-.08,7.5-.14,11.62s-.15,8-.22,11.6-.35,6.8.38,9.38a6.91,6.91,0,0,0,3.8,4.7A5.65,5.65,0,0,0,485.46,158.58Z" style="fill:#455a64"></path><path d="M494.53,163a3.7,3.7,0,0,1-.55-.4,14.82,14.82,0,0,1-1.45-1.31,22.19,22.19,0,0,1-4-5.89,34.57,34.57,0,0,1-2.94-10.18,113.39,113.39,0,0,1-.75-13,71.87,71.87,0,0,0-1.17-12.84,29,29,0,0,0-3.71-9.77,19.07,19.07,0,0,0-4.69-5.24c-1.34-1-2.2-1.39-2.18-1.43a2.63,2.63,0,0,1,.63.26,13.35,13.35,0,0,1,1.67,1,18.53,18.53,0,0,1,4.88,5.2,28.83,28.83,0,0,1,3.87,9.87,70.26,70.26,0,0,1,1.22,12.92,116.77,116.77,0,0,0,.71,12.9,35,35,0,0,0,2.8,10.1,22.85,22.85,0,0,0,3.86,5.9C493.82,162.34,494.56,162.91,494.53,163Z" style="fill:#455a64"></path><path d="M452.3,116.79s-.09-.07-.23-.22a4,4,0,0,1-.53-.77,6.47,6.47,0,0,1-.74-3.32,10,10,0,0,1,1.46-4.83,13,13,0,0,1,4.34-4.39,13.38,13.38,0,0,1,5.86-2,14.91,14.91,0,0,1,8.19,1.64,4.21,4.21,0,0,1,1,.67,24.52,24.52,0,0,0-4.29-1.53,15.19,15.19,0,0,0-4.89-.3,13.29,13.29,0,0,0-5.63,1.93c-3.67,2.24-5.63,6-5.71,8.8a6.76,6.76,0,0,0,.55,3.21C452.05,116.42,452.34,116.76,452.3,116.79Z" style="fill:#455a64"></path><path d="M449.43,129.51a6.5,6.5,0,0,1,.13,1.36c.05.87.11,2.14.16,3.7a95.71,95.71,0,0,1-.31,12.25,54,54,0,0,1-1.16,6.66,26,26,0,0,0-.68,5.4,14.09,14.09,0,0,0,.88,4.91s-.08-.09-.19-.3a6.44,6.44,0,0,1-.41-.93,11.54,11.54,0,0,1-.65-3.68,24.87,24.87,0,0,1,.58-5.5,59.36,59.36,0,0,0,1.12-6.61c.47-4.74.43-9.07.45-12.19,0-1.49,0-2.73,0-3.71A7.28,7.28,0,0,1,449.43,129.51Z" style="fill:#fff"></path><path d="M461.23,147.19s-.11,0-.32,0a7,7,0,0,1-.92,0,8.53,8.53,0,0,1-3.2-1.16,11.3,11.3,0,0,1-3.6-3.55,16,16,0,0,1-2.14-5.79,34.19,34.19,0,0,1-.44-6.14c0-1.85.05-3.53.06-5s0-2.57-.08-3.36a6.83,6.83,0,0,1,0-1.24,5,5,0,0,1,.25,1.22,31.87,31.87,0,0,1,.25,3.37c0,1.43,0,3.12,0,5a37.26,37.26,0,0,0,.47,6.05,16.1,16.1,0,0,0,2,5.63,11.43,11.43,0,0,0,3.38,3.49A10.15,10.15,0,0,0,461.23,147.19Z" style="fill:#fff"></path><path d="M539.48,431l-7.62-10-.39-.51-13,9.65,12,13.2-.44,13.36c-6.7,1.73-7.7,5.08-7.7,5.08l13.91,0,12.64-24.34Z" style="fill:#FFCE00"></path><polygon points="548.91 437.44 536.28 461.78 522.37 461.8 523.93 459.7 535.25 459.07 546.91 436.06 548.91 437.44" style="fill:#fff;opacity:0.6000000000000001"></polygon><path d="M530.15,450.6c.1.14.91-.31,2-.28s1.87.47,2,.33-.66-.94-2-.95S530,450.49,530.15,450.6Z" style="fill:#263238"></path><path d="M530.37,447.29c.14.09.76-.73,1.87-.94s2,.29,2.09.14-.12-.29-.51-.51a2.63,2.63,0,0,0-3.18.64C530.36,447,530.31,447.25,530.37,447.29Z" style="fill:#263238"></path><path d="M530.28,443c.15.08.63-.73,1.6-1.06s1.83,0,1.9-.18-.13-.26-.52-.41a2.39,2.39,0,0,0-1.59,0,2.43,2.43,0,0,0-1.24,1C530.22,442.74,530.21,443,530.28,443Z" style="fill:#263238"></path><path d="M526.55,439.73c.17.06.56-.73,1.42-1.29s1.73-.64,1.74-.82-1-.4-2.08.31S526.39,439.71,526.55,439.73Z" style="fill:#263238"></path><path d="M524.74,436.88a6.17,6.17,0,0,0,1.21-1.46l1.18-1.67a4.37,4.37,0,0,0,.64-1.13,1.13,1.13,0,0,0-.08-.84.88.88,0,0,0-.84-.44,2.59,2.59,0,0,0-1.3.67,5.1,5.1,0,0,0-.85,1,4.79,4.79,0,0,0-.73,2,2.6,2.6,0,0,0,.32,1.9,16.17,16.17,0,0,1,.11-1.83,4.86,4.86,0,0,1,.77-1.76,4.23,4.23,0,0,1,.76-.83,2.23,2.23,0,0,1,1-.52.23.23,0,0,1,.26.12.54.54,0,0,1,0,.4,4.15,4.15,0,0,1-.54,1l-1.06,1.74A6,6,0,0,0,524.74,436.88Z" style="fill:#263238"></path><path d="M524.24,437.29c.07,0,0-.73-.74-1.57a3.47,3.47,0,0,0-4.13-.74.66.66,0,0,0-.21.49.8.8,0,0,0,.17.45,1.92,1.92,0,0,0,.5.43,5.72,5.72,0,0,0,1,.56,5.78,5.78,0,0,0,1.83.51,2.77,2.77,0,0,0,1.72-.16c0-.1-.66-.05-1.65-.26a7.1,7.1,0,0,1-1.66-.59,7,7,0,0,1-.88-.54,2.43,2.43,0,0,1-.36-.32c-.06-.12,0-.08,0-.12a1.07,1.07,0,0,1,.4-.15,3,3,0,0,1,.52-.08,3.18,3.18,0,0,1,1,.07,3.36,3.36,0,0,1,1.51.76C523.94,436.69,524.15,437.33,524.24,437.29Z" style="fill:#263238"></path><circle cx="539.47" cy="437.03" r="1.65" style="fill:#fff;opacity:0.6000000000000001"></circle><polygon points="519.7 431.49 522.37 434.42 533.6 423.3 532.04 421.26 519.7 431.49" style="opacity:0.30000000000000004"></polygon><path d="M449.21,255.68l11.53,95c1.11,9.17,2.67,18,8.9,24.83l45.12,59.69,26.36-20-47.35-73.41,4.8-94.61-48.41,8.26" style="fill:#263238"></path><path d="M463.77,432.27l1.61,18.48s-18.24,7.85-18.27,11.3h36.1l-1.49-30.75Z" style="fill:#FFCE00"></path><g style="opacity:0.6000000000000001"><path d="M476.42,448.63a1.46,1.46,0,0,1,1.1,1.62,1.4,1.4,0,0,1-1.6,1.1,1.54,1.54,0,0,1-1.15-1.72,1.47,1.47,0,0,1,1.79-1" style="fill:#fff"></path></g><path d="M483.21,462.05l-.27-3.23-34.51,1.33s-1.56.78-1.32,1.9Z" style="fill:#fff;opacity:0.6000000000000001"></path><path d="M464.79,450.6c0,.18.9.21,1.79.73s1.39,1.24,1.55,1.16-.15-1.08-1.25-1.69S464.75,450.44,464.79,450.6Z" style="fill:#263238"></path><path d="M461.1,452.35c0,.18.75.44,1.38,1.15s.85,1.49,1,1.47.24-1-.57-1.89S461.1,452.19,461.1,452.35Z" style="fill:#263238"></path><path d="M459.19,457c.16,0,.36-.86-.14-1.8s-1.34-1.28-1.4-1.13.46.64.86,1.41S459,457,459.19,457Z" style="fill:#263238"></path><path d="M464.89,446.35c.08.15.88-.13,1.87-.11s1.79.29,1.87.13-.69-.74-1.86-.74S464.8,446.21,464.89,446.35Z" style="fill:#263238"></path><polygon points="464.09 435.93 464.38 439.23 482.04 438.16 481.91 435.18 464.09 435.93" style="opacity:0.30000000000000004"></polygon><path d="M464.63,442.61a3.26,3.26,0,0,0,1.8-.1,8.29,8.29,0,0,0,1.86-.67,7.66,7.66,0,0,0,1-.61,2.08,2.08,0,0,0,.53-.45.77.77,0,0,0,0-.94,1,1,0,0,0-.79-.36,2.41,2.41,0,0,0-.67.13,6.47,6.47,0,0,0-1.1.44,6.39,6.39,0,0,0-1.61,1.18c-.79.81-1,1.48-1,1.51s.46-.51,1.28-1.19a6.88,6.88,0,0,1,1.56-1,6,6,0,0,1,1-.37c.38-.12.7-.14.81,0s0,.09,0,.21a2.72,2.72,0,0,1-.38.33,9.58,9.58,0,0,1-.93.59,10.45,10.45,0,0,1-1.7.76A15.06,15.06,0,0,0,464.63,442.61Z" style="fill:#263238"></path><path d="M464.88,442.85a2.84,2.84,0,0,0,.38-1.76,5.73,5.73,0,0,0-.35-2,5.2,5.2,0,0,0-.51-1.07,1.49,1.49,0,0,0-1.2-.85.86.86,0,0,0-.72.54,2.27,2.27,0,0,0-.15.67,3.7,3.7,0,0,0,.06,1.21,4.17,4.17,0,0,0,.86,1.82c.75.9,1.5,1.07,1.51,1s-.58-.4-1.16-1.26a4.24,4.24,0,0,1-.66-1.67,4,4,0,0,1,0-1c0-.38.17-.7.31-.67s.5.26.66.56a6.21,6.21,0,0,1,.5.95,6.4,6.4,0,0,1,.44,1.78C464.93,442.16,464.78,442.83,464.88,442.85Z" style="fill:#263238"></path><path d="M449,251.85a602.65,602.65,0,0,0-5.47,97.32c.95,31,14.71,87,14.71,87l31.57-1.33-5.74-73.32,2.69-45c1.1-12.9,7.31-30.36,13.14-40.44a37.23,37.23,0,0,0,4.43-11.86c1.77-9.55-.75-16.35-5.29-27.94h0Z" style="fill:#263238"></path><path d="M503.56,269.24s-.06.18-.19.51-.35.82-.64,1.46c-.58,1.27-1.47,3.11-2.7,5.43-.61,1.16-1.3,2.44-2.08,3.83a45.36,45.36,0,0,0-2.32,4.58c-1.49,3.37-3,7.28-4.46,11.61v0c-1.76,12-3.77,27.14-5.23,43.57-.41,5.1-.81,10.07-1,14.89a126,126,0,0,0,0,13.87c.68,8.83,1.28,16.78,1.79,23.47s.88,12.06,1.15,15.83c.13,1.85.22,3.29.29,4.31,0,.47.05.84.06,1.12a2.72,2.72,0,0,1,0,.38,2,2,0,0,1-.06-.38c0-.28-.07-.65-.11-1.12-.09-1-.22-2.45-.39-4.29-.31-3.77-.76-9.17-1.32-15.82s-1.18-14.65-1.89-23.47a124.19,124.19,0,0,1,0-13.92c.18-4.83.58-9.81,1-14.91,1.47-16.45,3.51-31.56,5.33-43.59v0c1.52-4.33,3-8.24,4.55-11.61a44.2,44.2,0,0,1,2.38-4.58c.79-1.38,1.49-2.65,2.12-3.8,1.26-2.3,2.19-4.12,2.8-5.38l.69-1.42C503.47,269.4,503.56,269.24,503.56,269.24Z" style="fill:#455a64"></path><path d="M494,341.74a23.52,23.52,0,0,0-4.2,5.63,23.78,23.78,0,0,0-1.88,6.76,5.83,5.83,0,0,1,0-2.11,14.92,14.92,0,0,1,4.42-9A5.71,5.71,0,0,1,494,341.74Z" style="fill:#455a64"></path><path d="M405.47,132.44a34.56,34.56,0,0,1-.29-7.41,1.3,1.3,0,0,1,.57-1,1.09,1.09,0,0,1,1.09,0,2.17,2.17,0,0,1,.74.85c.67,1.21.58,4.49.63,6.83" style="fill:#eb996e"></path><path d="M401.76,143s-2.24-5-1.5-6.22,8.43-5.58,8-6.09-1.14-6.2.22-6.49c1.08-.24,1.73.17,2,1.94.15,1,1.67,6,.89,6.76s-2.32,9.45-2.32,9.45Z" style="fill:#ffbe9d"></path><path d="M415.5,141.82c0-.68.46-7.5-4.15-10.63l-6.82-5.55a1.5,1.5,0,0,0-2.45.93,3.55,3.55,0,0,0,.74,2.48,61.47,61.47,0,0,0,4.95,6s-5.56,2.28-3.88,7.82Z" style="fill:#ffbe9d"></path><path d="M403.62,141.54a1.86,1.86,0,0,1-.16-.57,3.61,3.61,0,0,1,.26-1.67,11.88,11.88,0,0,1,3.93-4.63l0,.32c-1.18-1.25-2.47-2.68-3.78-4.32-.32-.41-.65-.84-1-1.28a6.09,6.09,0,0,1-.85-1.48,3.16,3.16,0,0,1-.15-1.81,1.74,1.74,0,0,1,1.49-1.22,1.85,1.85,0,0,1,1.44.48l1,.84,2,1.64,3.66,3h0a9,9,0,0,1,2.9,3.32,10,10,0,0,1,1,3.26,12.54,12.54,0,0,1,.08,2.18,3.48,3.48,0,0,1-.1.77c-.08,0,.05-1.08-.25-2.91a10,10,0,0,0-1-3.12,8.78,8.78,0,0,0-2.82-3.12h0l-3.69-3-2-1.63-1-.84a1.35,1.35,0,0,0-1.05-.37,1.25,1.25,0,0,0-1.05.85,2.78,2.78,0,0,0,.13,1.5,5.67,5.67,0,0,0,.79,1.36c.3.43.62.85.94,1.26,1.28,1.64,2.55,3.09,3.69,4.34l.16.17-.19.14a12.26,12.26,0,0,0-3.95,4.38,4,4,0,0,0-.36,1.57A2,2,0,0,1,403.62,141.54Z" style="fill:#eb996e"></path><path d="M407.64,135.08a15.06,15.06,0,0,0-2.52,3.3,15,15,0,0,0-1.06,4c-.07,0-.19-.47-.17-1.26a7.53,7.53,0,0,1,2.65-5.42C407.15,135.22,407.61,135,407.64,135.08Z" style="fill:#fff"></path><path d="M449.29,240.8c.34.46-.18,10.77-.18,10.77l50-15.56-6.8-17.07Z" style="fill:#455a64"></path><path d="M496.72,214.78l-2.38-6.32,1.07-11.79,4.11-15.42a18,18,0,0,0-16.11-22.67l-.38,0-.19-4.69a1.56,1.56,0,0,0-1.61-1.49l-20.05.72a1.55,1.55,0,0,0-1.49,1.58l.08,4.33a23.91,23.91,0,0,0-15.36,12v0L443.56,195v12c.06,7.56,0,15.46,0,15.46v13.08c0,3.27,2.72,6.67,5.79,5.52l43.38-17.27A7,7,0,0,0,496.72,214.78Z" style="fill:#FFCE00"></path><path d="M454,161.25,423.89,181l-4.51-39.49-18.11,1.59,2.86,42.28c.5,8.23,4.54,15.9,12.44,18.26l.84.26a17.79,17.79,0,0,0,15-2.29L455.53,186l-.38-7.32Z" style="fill:#FFCE00"></path><path d="M480.68,166.84l-37.12,35.65-48.22,6.36,1.17,12.67,48.43.82a16.58,16.58,0,0,0,9.27-3.91L495.1,183.5a11,11,0,0,0,.39-16.41h0A11,11,0,0,0,480.68,166.84Z" style="fill:#FFCE00"></path><path d="M496.29,182.75a4,4,0,0,1-.45.53l-1.35,1.48c-1.24,1.3-2.95,3.12-5.05,5.34-4.3,4.48-10.18,10.72-16.84,17.46a76.61,76.61,0,0,1-10.18,8.69,37.24,37.24,0,0,1-9.73,5,28.52,28.52,0,0,1-7.24,1.36c-.87,0-1.55,0-2,0a3.15,3.15,0,0,1-.69-.06,5.4,5.4,0,0,1,.69,0c.46,0,1.13-.05,2-.11a31,31,0,0,0,7.14-1.51,38.06,38.06,0,0,0,9.58-5,78.55,78.55,0,0,0,10.08-8.67l16.94-17.35,5.17-5.23,1.43-1.4A2.83,2.83,0,0,1,496.29,182.75Z" style="fill:#263238"></path><path d="M492.32,165.6a18.74,18.74,0,0,0-2.38-.79,12.32,12.32,0,0,0-6.7.64,16.59,16.59,0,0,0-4.11,2.25,28.25,28.25,0,0,0-3.91,3.73c-2.56,2.85-5,6.31-7.88,9.72a151.42,151.42,0,0,1-15.86,16.32,36.51,36.51,0,0,1-5.56,4.11,10.85,10.85,0,0,1-1,.48,2.88,2.88,0,0,1-.74.28,2.67,2.67,0,0,1-.64.15,15.66,15.66,0,0,0,2.26-1.09,41,41,0,0,0,5.42-4.21,167.18,167.18,0,0,0,15.7-16.38c2.86-3.38,5.32-6.84,7.92-9.7a28.07,28.07,0,0,1,4-3.76,16.63,16.63,0,0,1,4.24-2.25,12.13,12.13,0,0,1,6.86-.49A7.31,7.31,0,0,1,492.32,165.6Z" style="fill:#263238"></path><path d="M457.39,166.9s0,.14-.09.4-.17.63-.36,1.1a23.45,23.45,0,0,1-1.87,3.83c-.92,1.55-2.15,3.3-3.56,5.21a73.26,73.26,0,0,0-4.34,6.33A27.84,27.84,0,0,0,443.43,197a47,47,0,0,0,.35,5.76s-.06-.13-.12-.38a11.15,11.15,0,0,1-.24-1.14,24,24,0,0,1-.36-4.25,27.09,27.09,0,0,1,3.66-13.47,65.67,65.67,0,0,1,4.41-6.36c1.43-1.88,2.68-3.6,3.63-5.12a31.18,31.18,0,0,0,2-3.71A11.74,11.74,0,0,1,457.39,166.9Z" style="fill:#263238"></path><path d="M451.89,239.55c0,.06-.46,0-1.06-.41a4.39,4.39,0,0,1-1.68-2.18,4.31,4.31,0,0,1,0-2.75c.22-.68.51-1,.57-1s-.1.43-.22,1.07a5.16,5.16,0,0,0,.18,2.5,5,5,0,0,0,1.42,2.06C451.55,239.28,451.92,239.48,451.89,239.55Z" style="fill:#263238"></path><path d="M460.11,237.08s-.43-.11-.95-.55a5.84,5.84,0,0,1-1.53-2.17,5.75,5.75,0,0,1-.4-2.62c.07-.69.25-1.07.31-1.06a8.22,8.22,0,0,0,2.57,6.4Z" style="fill:#263238"></path><path d="M469.19,233c-.15,0-.68-1.44-1.63-3.1s-1.94-2.88-1.83-3a9.93,9.93,0,0,1,3.46,6.08Z" style="fill:#263238"></path><path d="M477.67,230c-.16,0-.34-1.7-1.24-3.58s-2.08-3.13-2-3.24a6.34,6.34,0,0,1,2.44,3A6.41,6.41,0,0,1,477.67,230Z" style="fill:#263238"></path><path d="M487,225.87a11.28,11.28,0,0,0-1.23-4,10.93,10.93,0,0,0-3-3c0-.06.51,0,1.21.45a6.65,6.65,0,0,1,3.15,5.22C487.19,225.39,487.05,225.88,487,225.87Z" style="fill:#263238"></path><path d="M483.42,231.45a4.84,4.84,0,0,1-.61,1,23,23,0,0,1-2,2.41,31.09,31.09,0,0,1-3.36,3.16,32.65,32.65,0,0,1-9.84,5.45,30.84,30.84,0,0,1-4.46,1.16,22.53,22.53,0,0,1-3.08.38,4.52,4.52,0,0,1-1.14,0c0-.1,1.61-.2,4.14-.75a34.29,34.29,0,0,0,4.38-1.26,34.21,34.21,0,0,0,9.7-5.37,35,35,0,0,0,3.39-3C482.4,232.71,483.34,231.39,483.42,231.45Z" style="fill:#263238"></path><g style="opacity:0.30000000000000004"><path d="M445.41,222.51c7.85,1.29,16.3,2.5,23.41-1.06,4.56-2.29,8-6.31,10.83-10.55a65.76,65.76,0,0,0,8.92-20l-11.64,12c-6.37,6.56-14.07,13.75-22.48,17.64a14.46,14.46,0,0,1-3.86,1.16Z"></path></g><path d="M483,158.53a9.09,9.09,0,0,0-3.51,1.19c-1,.56-2.1,1.4-3.4,2.25a11.52,11.52,0,0,1-4.7,1.95,12,12,0,0,1-5.08-.36,14.72,14.72,0,0,1-3.77-1.72,16.24,16.24,0,0,1-2.22-1.68c-.49-.44-.73-.71-.7-.74s1.12.93,3.11,2.11a16.1,16.1,0,0,0,3.71,1.57,11.87,11.87,0,0,0,4.87.3,11.4,11.4,0,0,0,4.52-1.83c1.29-.82,2.43-1.64,3.49-2.18a8,8,0,0,1,2.65-.89A2.3,2.3,0,0,1,483,158.53Z" style="fill:#263238"></path><path d="M415.55,203.27a2.71,2.71,0,0,1-.7-.2,12.58,12.58,0,0,1-1.87-.91,17.57,17.57,0,0,1-5.57-5.23,21.79,21.79,0,0,1-1.34-2.18,14.32,14.32,0,0,1-1.11-2.54,25.77,25.77,0,0,1-1-6c-.28-4.26-.58-8.94-.89-13.84-.59-9.8-1.12-18.67-1.51-25.16a68.68,68.68,0,0,0-1-7.56,13.14,13.14,0,0,1-.11-2.08c0-.24,0-.42,0-.54s0-.18,0-.18a5.07,5.07,0,0,1,0,.72,18.18,18.18,0,0,0,.21,2.06,57,57,0,0,1,1.12,7.55c.43,6.49,1,15.36,1.67,25.15.3,4.91.59,9.58.85,13.84a25.75,25.75,0,0,0,.92,5.92,14.23,14.23,0,0,0,1.06,2.49,21,21,0,0,0,1.28,2.15,18.08,18.08,0,0,0,5.37,5.26,13.22,13.22,0,0,0,1.81,1C415.32,203.17,415.56,203.25,415.55,203.27Z" style="fill:#fff"></path><path d="M454.75,160.47a10.29,10.29,0,0,1-1.32,1c-.87.65-2.14,1.57-3.73,2.69-3.17,2.24-7.59,5.27-12.54,8.51s-9.5,6.1-12.82,8.11c-1.66,1-3,1.81-3.95,2.35a10.06,10.06,0,0,1-1.49.79,11.86,11.86,0,0,1,1.39-1l3.86-2.49c3.26-2.1,7.77-5,12.72-8.23s9.4-6.23,12.62-8.39l3.83-2.54A9.6,9.6,0,0,1,454.75,160.47Z" style="fill:#fff"></path><path d="M453.29,176.84c.07.08-1.14,1-2.76,2.8A27.4,27.4,0,0,0,448,183a29.22,29.22,0,0,0-2.38,4.61,30,30,0,0,0-1.47,5,26.33,26.33,0,0,0-.47,4.23c-.08,2.42.16,3.92.06,3.93a3.89,3.89,0,0,1-.22-1,9.31,9.31,0,0,1-.14-1.24c0-.49-.09-1.05-.07-1.66a24.08,24.08,0,0,1,.37-4.3,25.48,25.48,0,0,1,3.92-9.77,24.32,24.32,0,0,1,2.71-3.37c.41-.46.84-.81,1.19-1.15s.69-.59,1-.8A4.48,4.48,0,0,1,453.29,176.84Z" style="fill:#fff"></path><path d="M441.69,203.7c0,.15-10.29,1.45-23,2.91s-23.06,2.54-23.08,2.4,10.29-1.45,23-2.91S441.68,203.56,441.69,203.7Z" style="fill:#fff"></path><path d="M460.88,153.37c0,.07-.36.08-.65.48a3.12,3.12,0,0,0-.29,1.91,9.25,9.25,0,0,1-.27,3,9.1,9.1,0,0,1-.26-3,8,8,0,0,1,.07-1.21,1.76,1.76,0,0,1,.48-1C460.44,153.15,460.91,153.3,460.88,153.37Z" style="fill:#fff"></path></g><g id="freepik--Plant--inject-3"><path d="M665.28,379.94c9.11,3.18,21,.33,28.78-5.35s13.4-13.85,18.37-22.12c2.12-3.52,4.19-7.2,4.86-11.27s-.32-8.63-3.47-11.28c-4.89-4.12-12.39-2-18,1.14a62,62,0,0,0-30.59,48.88" style="fill:#FFCE00"></path><path d="M675.06,401.74c5.47,7.21,14.87,10.43,23.91,10.84s18-2.08,26.44-5.32c3.07-1.18,6.43-2.79,7.48-5.9a7.56,7.56,0,0,0-1.6-7,15.7,15.7,0,0,0-6.11-4.16c-8.32-3.54-17.85-3.71-26.61-1.44s-16.4,7.35-23.51,12.95" style="fill:#FFCE00"></path><path d="M665.15,340.92c7.54.15,13.24-6.46,16.66-13.18a48.83,48.83,0,0,0,4.49-30.46c-.69-3.85-2.15-8-5.6-9.86s-8.06-.64-11,2S665.16,296,664,299.77c-4,13.1-3.17,28.15,1.17,41.15" style="fill:#FFCE00"></path><path d="M640.38,382.62c12.86-21.88,15-48.65,7.41-72.86-1.24-3.93-3.56-8.42-7.67-8.68-4.55-.29-7.4,4.78-8.66,9.16C627.06,325.62,628,342,629,357.91c.6,9.84,4,18.24,11.41,24.71" style="fill:#FFCE00"></path><path d="M627,391.62a52.56,52.56,0,0,0-31.19-33.08c-3.42-1.29-7.76-2-10.3.59s-1.73,6.85-.13,10.05c2.59,5.16,6.79,9.31,11,13.3,3.81,3.62,7.76,7.26,12.58,9.37s13.66,2.64,18.06-.23" style="fill:#FFCE00"></path><path d="M706.71,335.41s-.07.08-.22.2l-.69.54-2.7,2-2,1.44c-.7.55-1.44,1.18-2.24,1.83-1.59,1.33-3.48,2.76-5.37,4.56l-3,2.75c-1,1-2.06,2.05-3.15,3.13-2.21,2.13-4.35,4.61-6.66,7.18a141.74,141.74,0,0,0-23.49,38c-1.27,3.21-2.53,6.24-3.44,9.17-.48,1.45-1,2.84-1.39,4.21s-.76,2.69-1.11,3.94c-.77,2.5-1.21,4.82-1.68,6.84-.23,1-.46,1.95-.63,2.82s-.29,1.67-.42,2.39c-.25,1.4-.45,2.51-.6,3.31-.07.35-.12.64-.17.86s-.07.3-.08.29a1.27,1.27,0,0,1,0-.29c0-.24.07-.52.11-.87.12-.81.28-1.93.49-3.34.11-.72.23-1.53.36-2.4s.38-1.82.58-2.84c.45-2,.86-4.37,1.6-6.88.35-1.26.7-2.59,1.08-4s.89-2.78,1.36-4.24c.9-2.95,2.15-6,3.4-9.22a138.44,138.44,0,0,1,23.59-38.17c2.33-2.56,4.49-5,6.73-7.16,1.1-1.08,2.12-2.16,3.18-3.12l3.07-2.73c1.91-1.79,3.82-3.2,5.44-4.51.81-.64,1.56-1.25,2.27-1.79l2-1.4,2.77-1.92.72-.49A1.16,1.16,0,0,1,706.71,335.41Z" style="fill:#263238"></path><path d="M723.74,396.06a4.65,4.65,0,0,1-.88-.15c-.58-.1-1.41-.33-2.51-.51a72.63,72.63,0,0,0-9.31-1.14,68,68,0,0,0-55.14,22.95,71.08,71.08,0,0,0-5.75,7.4c-.64.91-1.07,1.66-1.4,2.14a5.41,5.41,0,0,1-.52.73,4.3,4.3,0,0,1,.41-.8c.3-.5.7-1.27,1.31-2.19a62.68,62.68,0,0,1,5.63-7.56,66.81,66.81,0,0,1,55.49-23.09,62.73,62.73,0,0,1,9.33,1.33c1.09.22,1.92.48,2.48.62A5.57,5.57,0,0,1,723.74,396.06Z" style="fill:#263238"></path><path d="M676.26,296.16a1.82,1.82,0,0,1,0,.34c-.05.25-.12.57-.2,1-.21.9-.49,2.16-.85,3.76-.74,3.27-1.87,8-3.29,13.81-2.83,11.65-7,27.69-11.23,45.46-2.13,8.89-4.06,17.38-5.72,25.13s-3,14.75-4.06,20.65c-.56,2.94-1,5.62-1.37,8s-.71,4.37-1,6l-.59,3.81c-.07.41-.13.74-.17,1a1.31,1.31,0,0,1-.08.34,1.74,1.74,0,0,1,0-.34c0-.26.06-.59.11-1,.11-.92.28-2.2.48-3.83s.48-3.7.86-6.05.75-5,1.28-8c1-5.91,2.33-12.92,3.93-20.69s3.55-16.26,5.68-25.15c4.29-17.78,8.47-33.8,11.41-45.42l3.47-13.76,1-3.74c.11-.4.19-.72.26-1A1,1,0,0,1,676.26,296.16Z" style="fill:#263238"></path><path d="M646.74,423.66a.91.91,0,0,1-.08-.27l-.18-.78c-.15-.75-.37-1.77-.63-3.05-.55-2.65-1.27-6.49-2.09-11.25-1.65-9.52-3.61-22.74-4.81-37.44-.58-7.35-.9-14.37-1.05-20.76s0-12.15.15-17c.06-2.42.22-4.6.33-6.51s.23-3.57.35-4.91.22-2.34.29-3.1c0-.32.07-.59.09-.8a.87.87,0,0,1,0-.28,1.23,1.23,0,0,1,0,.28l0,.81c0,.76-.1,1.8-.17,3.1s-.19,3-.25,4.92-.21,4.09-.24,6.5c-.14,4.83-.15,10.57,0,16.95s.52,13.39,1.1,20.73c1.2,14.68,3.08,27.89,4.62,37.42.77,4.77,1.43,8.62,1.9,11.28.22,1.29.39,2.31.52,3.06,0,.32.09.59.12.8A1.18,1.18,0,0,1,646.74,423.66Z" style="fill:#263238"></path><path d="M647.69,426.44a5.18,5.18,0,0,1-.33-.76l-.85-2.2-.6-1.59-.83-1.85-.94-2.12c-.33-.76-.76-1.52-1.17-2.33L641.66,413l-1.57-2.69c-1-1.89-2.36-3.76-3.65-5.81a139.57,139.57,0,0,0-9.68-12.37,149.38,149.38,0,0,0-11.12-11.12c-1.84-1.56-3.54-3.12-5.25-4.43L608,374.69,605.65,373c-1.46-1.1-2.83-2-4-2.84s-2.23-1.52-3.11-2l-2-1.26a4.15,4.15,0,0,1-.68-.48,4.29,4.29,0,0,1,.74.37l2,1.17c.9.49,2,1.16,3.18,2s2.62,1.69,4.1,2.77l2.34,1.68,2.47,1.92c1.73,1.3,3.44,2.85,5.3,4.4a144.64,144.64,0,0,1,11.2,11.14,129.49,129.49,0,0,1,9.69,12.46c1.28,2.06,2.61,4,3.63,5.86.53.94,1,1.85,1.54,2.72s.87,1.76,1.28,2.58.82,1.6,1.14,2.36l.9,2.16c.28.67.54,1.29.79,1.87s.38,1.13.55,1.62c.31.93.56,1.67.74,2.24A3.65,3.65,0,0,1,647.69,426.44Z" style="fill:#263238"></path><path d="M702,360.79c0,.09-1.56.09-4.06.23a75.94,75.94,0,0,0-9.71,1.18,74.75,74.75,0,0,0-9.46,2.46c-2.38.79-3.83,1.36-3.86,1.27a3.58,3.58,0,0,1,1-.52c.64-.31,1.58-.71,2.76-1.15a57.84,57.84,0,0,1,19.29-3.67c1.26,0,2.28,0,3,.06A3.53,3.53,0,0,1,702,360.79Z" style="fill:#263238"></path><path d="M711.64,408.15c-.18.1-1.63-4.09-5.29-8s-7.67-5.69-7.57-5.87a9.22,9.22,0,0,1,2.62,1.16,22.88,22.88,0,0,1,5.4,4.3,23.22,23.22,0,0,1,3.89,5.7A8.69,8.69,0,0,1,711.64,408.15Z" style="fill:#263238"></path><path d="M678.57,313.92c.13.13-2.24,2.47-4.82,5.65s-4.42,6-4.57,5.87,1.47-3,4.1-6.25A26,26,0,0,1,678.57,313.92Z" style="fill:#263238"></path><path d="M670.81,300.5a23.08,23.08,0,0,1,1.17,5.08c.48,2.83.74,5.15.57,5.17a22.7,22.7,0,0,1-1.17-5.07C670.9,302.85,670.64,300.53,670.81,300.5Z" style="fill:#263238"></path><path d="M646.76,342.59c.15.08-1.54,3.63-3.76,7.92s-4.16,7.72-4.31,7.64a66.13,66.13,0,0,1,3.77-7.92A63.67,63.67,0,0,1,646.76,342.59Z" style="fill:#263238"></path><path d="M632.44,328.31c.15-.08,1.58,2.49,3.19,5.72s2.8,5.93,2.65,6-1.58-2.49-3.19-5.73S632.29,328.38,632.44,328.31Z" style="fill:#263238"></path><path d="M611.41,377.18c0,.17-2.59-.33-5.78-.54s-5.77-.11-5.79-.28,2.6-.57,5.84-.33A16.5,16.5,0,0,1,611.41,377.18Z" style="fill:#263238"></path><path d="M625.77,420.38,632.93,458a5.27,5.27,0,0,0,5.18,4.29h21.15a5.27,5.27,0,0,0,5.2-4.41l6.22-37.52Z" style="fill:#263238"></path><polygon points="628.1 432.62 668.53 432.62 670.68 420.38 625.77 420.38 628.1 432.62" style="fill:#455a64"></polygon><polygon points="628.1 432.62 628.95 437.07 667.91 437.07 668.53 432.62 628.1 432.62" style="fill:#fafafa"></polygon></g><g id="freepik--Box--inject-3"><path d="M91.72,411.57l-1.35,24.76a1.65,1.65,0,0,1-1.65,1.58l-44.56.33a1.67,1.67,0,0,1-1.68-1.66l-.14-19.27A1.66,1.66,0,0,1,44,415.63l27.4,0a1.68,1.68,0,0,0,1.18-.49l4.73-4.72a1.66,1.66,0,0,1,1.17-.49L90,409.81A1.68,1.68,0,0,1,91.72,411.57Z" style="fill:#FFCE00"></path><path d="M91.72,411.57l-1.35,24.76a1.65,1.65,0,0,1-1.65,1.58l-44.56.33a1.67,1.67,0,0,1-1.68-1.66l-.14-19.27A1.66,1.66,0,0,1,44,415.63l27.4,0a1.68,1.68,0,0,0,1.18-.49l4.73-4.72a1.66,1.66,0,0,1,1.17-.49L90,409.81A1.68,1.68,0,0,1,91.72,411.57Z" style="opacity:0.30000000000000004"></path><rect x="42.41" y="412.53" width="48.68" height="29.09" transform="translate(136.63 853.66) rotate(179.58)" style="fill:#f5f5f5"></rect><path d="M94.88,414.94l-3.5,30.36a1.07,1.07,0,0,1-1.06.95l-47.44.35a1.08,1.08,0,0,1-1.08-1L39.19,415.3a1.09,1.09,0,0,1,1.06-1.17l53.55-.39A1.08,1.08,0,0,1,94.88,414.94Z" style="fill:#FFCE00"></path><path d="M104.83,406.9l-1.35,24.76a1.67,1.67,0,0,1-1.66,1.58l-44.55.33a1.67,1.67,0,0,1-1.68-1.66l-.14-19.27A1.68,1.68,0,0,1,57.12,411l27.4,0a1.68,1.68,0,0,0,1.18-.49l4.73-4.72a1.62,1.62,0,0,1,1.17-.49l11.55-.09A1.67,1.67,0,0,1,104.83,406.9Z" style="fill:#FFCE00"></path><path d="M104.83,406.9l-1.35,24.76a1.67,1.67,0,0,1-1.66,1.58l-44.55.33a1.67,1.67,0,0,1-1.68-1.66l-.14-19.27A1.68,1.68,0,0,1,57.12,411l27.4,0a1.68,1.68,0,0,0,1.18-.49l4.73-4.72a1.62,1.62,0,0,1,1.17-.49l11.55-.09A1.67,1.67,0,0,1,104.83,406.9Z" style="opacity:0.30000000000000004"></path><rect x="55.52" y="407.86" width="48.68" height="29.09" transform="translate(162.81 844.22) rotate(179.58)" style="fill:#f5f5f5"></rect><path d="M108,410.27l-3.49,30.36a1.07,1.07,0,0,1-1.06.95L56,441.93a1.09,1.09,0,0,1-1.08-1L52.3,410.63a1.07,1.07,0,0,1,1.06-1.17l53.55-.39A1.07,1.07,0,0,1,108,410.27Z" style="fill:#FFCE00"></path><path d="M108,410.27l-3.49,30.36a1.07,1.07,0,0,1-1.06.95L56,441.93a1.09,1.09,0,0,1-1.08-1L52.3,410.63a1.07,1.07,0,0,1,1.06-1.17l53.55-.39A1.07,1.07,0,0,1,108,410.27Z" style="opacity:0.30000000000000004"></path><path d="M119.6,412.7l-1.35,24.76A1.67,1.67,0,0,1,116.6,439L72,439.37a1.68,1.68,0,0,1-1.68-1.66l-.14-19.27a1.67,1.67,0,0,1,1.67-1.69l27.4,0a1.68,1.68,0,0,0,1.18-.49l4.73-4.73a1.7,1.7,0,0,1,1.17-.49l11.55-.08A1.67,1.67,0,0,1,119.6,412.7Z" style="fill:#FFCE00"></path><rect x="70.29" y="413.66" width="48.68" height="29.09" transform="translate(192.4 855.71) rotate(179.58)" style="fill:#f5f5f5"></rect><path d="M122.76,416.06l-3.5,30.37a1.08,1.08,0,0,1-1.06.95l-47.44.35a1.09,1.09,0,0,1-1.08-1l-2.61-30.31a1.08,1.08,0,0,1,1.06-1.17l53.55-.39A1.07,1.07,0,0,1,122.76,416.06Z" style="fill:#FFCE00"></path><path d="M67.07,420.19v42.12h60.75V420.19Zm19.83,7.58A3.11,3.11,0,0,1,90,424.66h14.87a3.11,3.11,0,1,1,0,6.22H90A3.11,3.11,0,0,1,86.9,427.77Z" style="fill:#455a64"></path><path d="M34.31,420.19v42.12H67.07V420.19Z" style="fill:#263238"></path></g></svg>
